<svg width="21" height="20" viewBox="0 0 21 20" fill="none" xmlns="http://www.w3.org/2000/svg">
<g id="restaurant_black_24dp 1" clip-path="url(#clip0_625_955)">
<path id="Vector" d="M13.8333 5V10C13.8333 10.9167 14.5833 11.6667 15.5 11.6667H16.3333V17.5C16.3333 17.9583 16.7083 18.3333 17.1667 18.3333C17.625 18.3333 18 17.9583 18 17.5V2.60833C18 2.06666 17.4917 1.66666 16.9667 1.79166C15.1667 2.23333 13.8333 3.75833 13.8333 5ZM9.66667 7.5H8V2.5C8 2.04166 7.625 1.66666 7.16667 1.66666C6.70833 1.66666 6.33333 2.04166 6.33333 2.5V7.5H4.66667V2.5C4.66667 2.04166 4.29167 1.66666 3.83333 1.66666C3.375 1.66666 3 2.04166 3 2.5V7.5C3 9.34166 4.49167 10.8333 6.33333 10.8333V17.5C6.33333 17.9583 6.70833 18.3333 7.16667 18.3333C7.625 18.3333 8 17.9583 8 17.5V10.8333C9.84167 10.8333 11.3333 9.34166 11.3333 7.5V2.5C11.3333 2.04166 10.9583 1.66666 10.5 1.66666C10.0417 1.66666 9.66667 2.04166 9.66667 2.5V7.5Z" fill="#111111"/>
</g>
<defs>
<clipPath id="clip0_625_955">
<rect width="20" height="20" fill="white" transform="translate(0.5)"/>
</clipPath>
</defs>
</svg>
