<svg width="21" height="20" viewBox="0 0 21 20" fill="none" xmlns="http://www.w3.org/2000/svg">
<g id="today_black_24dp 1" clip-path="url(#clip0_625_794)">
<path id="Vector" d="M16.3333 2.5H15.5V1.66667C15.5 1.20834 15.125 0.833336 14.6667 0.833336C14.2083 0.833336 13.8333 1.20834 13.8333 1.66667V2.5H7.16667V1.66667C7.16667 1.20834 6.79167 0.833336 6.33333 0.833336C5.875 0.833336 5.5 1.20834 5.5 1.66667V2.5H4.66667C3.74167 2.5 3.00833 3.25 3.00833 4.16667L3 15.8333C3 16.75 3.74167 17.5 4.66667 17.5H16.3333C17.25 17.5 18 16.75 18 15.8333V4.16667C18 3.25 17.25 2.5 16.3333 2.5ZM15.5 15.8333H5.5C5.04167 15.8333 4.66667 15.4583 4.66667 15V6.66667H16.3333V15C16.3333 15.4583 15.9583 15.8333 15.5 15.8333ZM7.16667 8.33334H9.66667C10.125 8.33334 10.5 8.70834 10.5 9.16667V11.6667C10.5 12.125 10.125 12.5 9.66667 12.5H7.16667C6.70833 12.5 6.33333 12.125 6.33333 11.6667V9.16667C6.33333 8.70834 6.70833 8.33334 7.16667 8.33334Z" fill="#111111"/>
</g>
<defs>
<clipPath id="clip0_625_794">
<rect width="20" height="20" fill="white" transform="translate(0.5)"/>
</clipPath>
</defs>
</svg>
