<svg width="21" height="20" viewBox="0 0 21 20" fill="none" xmlns="http://www.w3.org/2000/svg">
<g id="restaurant_black_24dp 1" clip-path="url(#clip0_625_1230)">
<path id="Vector" d="M13.8333 5.00002V10C13.8333 10.9167 14.5833 11.6667 15.5 11.6667H16.3333V17.5C16.3333 17.9584 16.7083 18.3334 17.1667 18.3334C17.625 18.3334 18 17.9584 18 17.5V2.60835C18 2.06669 17.4917 1.66669 16.9667 1.79169C15.1667 2.23335 13.8333 3.75835 13.8333 5.00002ZM9.66667 7.50002H8V2.50002C8 2.04169 7.625 1.66669 7.16667 1.66669C6.70833 1.66669 6.33333 2.04169 6.33333 2.50002V7.50002H4.66667V2.50002C4.66667 2.04169 4.29167 1.66669 3.83333 1.66669C3.375 1.66669 3 2.04169 3 2.50002V7.50002C3 9.34169 4.49167 10.8334 6.33333 10.8334V17.5C6.33333 17.9584 6.70833 18.3334 7.16667 18.3334C7.625 18.3334 8 17.9584 8 17.5V10.8334C9.84167 10.8334 11.3333 9.34169 11.3333 7.50002V2.50002C11.3333 2.04169 10.9583 1.66669 10.5 1.66669C10.0417 1.66669 9.66667 2.04169 9.66667 2.50002V7.50002Z" fill="white"/>
</g>
<defs>
<clipPath id="clip0_625_1230">
<rect width="20" height="20" fill="white" transform="translate(0.5)"/>
</clipPath>
</defs>
</svg>
